<svg width="28" height="32" viewBox="0 0 28 32" fill="none" xmlns="http://www.w3.org/2000/svg">
<path d="M27.056 24.938C26.5893 26.0249 26.013 27.0614 25.336 28.0313C24.4306 29.3213 23.69 30.214 23.1193 30.71C22.2346 31.5233 21.286 31.9407 20.2706 31.964C19.542 31.964 18.6633 31.7567 17.64 31.336C16.6133 30.9173 15.67 30.7093 14.8073 30.7093C13.9026 30.7093 12.9326 30.9173 11.8946 31.336C10.8553 31.7567 10.018 31.976 9.37796 31.9973C8.40463 32.0393 7.43396 31.6107 6.46463 30.71C5.84663 30.17 5.07396 29.246 4.14729 27.9367C3.15329 26.538 2.33596 24.9167 1.69596 23.0673C1.01063 21.0707 0.666626 19.1367 0.666626 17.2647C0.666626 15.12 1.12996 13.2707 2.05796 11.7207C2.78796 10.4753 3.75796 9.494 4.97263 8.77267C6.16428 8.05956 7.52398 7.67581 8.91263 7.66067C9.68596 7.66067 10.7 7.9 11.9606 8.37C13.2173 8.84133 14.024 9.08067 14.378 9.08067C14.642 9.08067 15.5386 8.80067 17.058 8.24333C18.4953 7.726 19.708 7.512 20.7013 7.59667C23.394 7.814 25.4166 8.87533 26.7613 10.7873C24.354 12.246 23.1626 14.2893 23.1866 16.9107C23.208 18.9527 23.9486 20.652 25.4046 22.0007C26.0646 22.6273 26.8013 23.1113 27.6206 23.4547C27.4488 23.9552 27.2605 24.4499 27.056 24.938ZM20.8813 0.640667C20.8813 2.24067 20.2966 3.73533 19.1313 5.118C17.7246 6.76267 16.024 7.71267 14.1793 7.56267C14.1545 7.36139 14.142 7.15879 14.142 6.956C14.142 5.42 14.8106 3.776 15.9986 2.43133C16.592 1.75067 17.3453 1.18467 18.26 0.733333C19.1733 0.288667 20.036 0.0426667 20.848 0C20.8713 0.214 20.8813 0.428 20.8813 0.64V0.640667Z" fill="white"/>
</svg>
